<svg width="85" height="65" viewBox="0 0 85 65" fill="none" xmlns="http://www.w3.org/2000/svg">
<path d="M69.0622 57.1231H51.3538C50.3763 57.1231 49.583 56.3297 49.583 55.3522C49.583 54.3747 50.3763 53.5814 51.3538 53.5814H69.0622C71.9911 53.5814 74.3747 51.1978 74.3747 48.2689V44.7272C74.3747 43.7497 75.168 42.9564 76.1455 42.9564H79.6553C80.6328 42.9564 81.4261 42.1631 81.4261 41.1856V19.9355C81.4261 18.958 80.6328 18.1647 79.6553 18.1647H76.1455C75.168 18.1647 74.3747 17.3714 74.3747 16.3939V12.8522C74.3747 9.92326 71.9911 7.53971 69.0622 7.53971H58.4372C57.4597 7.53971 56.6663 6.74638 56.6663 5.76888C56.6663 4.79138 57.4597 3.99805 58.4372 3.99805H69.0622C73.9426 3.99805 77.9163 7.9718 77.9163 12.8522V14.623H79.6553C82.5843 14.623 84.9678 17.0066 84.9678 19.9355V41.1856C84.9678 44.1145 82.5843 46.4981 79.6553 46.4981H77.9163V48.2689C77.9163 53.1493 73.9426 57.1231 69.0622 57.1231Z" fill="#06338F"/>
<path d="M23.0208 57.1231H8.85417C3.97375 57.1231 0 53.1493 0 48.2689V12.8522C0 7.9718 3.97375 3.99805 8.85417 3.99805H33.6458C34.6233 3.99805 35.4167 4.79138 35.4167 5.76888C35.4167 6.74638 34.6233 7.53971 33.6458 7.53971H8.85417C5.92521 7.53971 3.54167 9.92326 3.54167 12.8522V48.2689C3.54167 51.1978 5.92521 53.5814 8.85417 53.5814H23.0208C23.9983 53.5814 24.7917 54.3747 24.7917 55.3522C24.7917 56.3297 23.9983 57.1231 23.0208 57.1231Z" fill="#06338F"/>
<path d="M32.9486 64.2061C32.6688 64.2061 32.3819 64.1388 32.1198 64.0007C31.3584 63.597 30.9971 62.7009 31.2698 61.8792L38.6861 39.4145H24.7921C24.1334 39.4145 23.5313 39.0497 23.2232 38.4653C22.9186 37.8809 22.9611 37.1761 23.3365 36.6342L47.8661 1.21757C48.3477 0.523404 49.265 0.275487 50.03 0.60132C50.8057 0.94132 51.2342 1.7807 51.0536 2.6059L46.0669 25.2478H60.2088C60.8817 25.2478 61.4979 25.6303 61.799 26.2359C62.0965 26.8415 62.0221 27.564 61.6113 28.0988L34.3511 63.5155C34.0075 63.9653 33.4834 64.2061 32.9486 64.2061ZM28.1744 35.8728H41.1369C41.7071 35.8728 42.2384 36.1455 42.5713 36.6059C42.9042 37.0663 42.9963 37.6578 42.8157 38.1997L37.8927 53.1065L56.6104 28.7894H43.864C43.3292 28.7894 42.8192 28.5451 42.4827 28.1272C42.1463 27.7092 42.0188 27.1603 42.1321 26.6361L45.6596 10.6242L28.1744 35.8728Z" fill="#06338F"/>
</svg>
