<svg width="86" height="86" viewBox="0 0 86 86" fill="none" xmlns="http://www.w3.org/2000/svg">
<path d="M39.139 58.1111C39.7881 57.462 39.7881 56.4114 39.139 55.7623C38.4892 55.1151 37.4366 55.1151 36.7862 55.7623C36.1377 56.4114 36.1377 57.462 36.7862 58.1111C37.4366 58.7583 38.4892 58.7583 39.139 58.1111Z" fill="#06338F"/>
<path d="M31.2637 18.716C31.2637 28.7827 39.4696 36.9732 49.5559 36.9732C59.6423 36.9732 67.8482 28.7827 67.8482 18.716C67.8482 8.64936 59.6423 0.459473 49.5559 0.459473C39.4696 0.459473 31.2637 8.64936 31.2637 18.716ZM64.5227 18.716C64.5227 26.9526 57.8086 33.6535 49.5559 33.6535C41.3032 33.6535 34.5892 26.9526 34.5892 18.716C34.5892 10.4801 41.3032 3.77914 49.5559 3.77914C57.8086 3.77914 64.5227 10.4801 64.5227 18.716Z" fill="#06338F"/>
<path d="M19.1543 84.9683C19.7989 85.6168 20.8483 85.6239 21.5013 84.9819L29.5636 77.0547C30.9333 75.6876 31.3498 73.6637 30.7475 71.9043L32.4817 70.2351C33.4154 69.3349 34.6448 68.8388 35.9443 68.8388H58.0514C61.9734 68.8388 65.6803 67.3356 68.4905 64.6061C68.6062 64.4939 67.6127 65.6619 83.5723 46.6245C85.9394 43.8295 85.5853 39.6324 82.7822 37.2673C79.9966 34.9243 75.8238 35.2609 73.4502 38.0079L63.6374 48.0739C62.3983 46.5519 60.5088 45.6031 58.4672 45.6031H39.9235C37.2848 44.5013 34.485 43.9436 31.5961 43.9436C23.5884 43.9436 16.5962 47.6349 12.8438 54.5557C11.2629 54.2567 9.59561 54.734 8.39614 55.9311L0.485215 63.8499C-0.160654 64.4965 -0.161953 65.5425 0.482616 66.191L19.1543 84.9683ZM31.5954 47.2626C34.1425 47.2626 36.6051 47.7743 38.9164 48.7834C39.1269 48.8755 39.3537 48.9228 39.583 48.9228H58.4672C60.2703 48.9228 61.7934 50.3904 61.7934 52.2418C61.7934 54.0725 60.3015 55.5615 58.4672 55.5615H44.8994C43.9813 55.5615 43.2367 56.3047 43.2367 57.221C43.2367 58.138 43.9813 58.8805 44.8994 58.8805H58.4672C62.1352 58.8805 65.1189 55.9026 65.1189 52.2418C65.1189 51.95 65.0981 51.6608 65.0604 51.3741C74.5529 41.6356 75.8914 40.2673 75.9486 40.1992C77.1338 38.803 79.2377 38.6259 80.6373 39.8036C82.0382 40.9858 82.2156 43.0844 81.0272 44.4884L66.1117 62.2845C63.9337 64.3713 61.0741 65.5198 58.0514 65.5198H35.9443C33.778 65.5198 31.7273 66.3467 30.1718 67.8466L28.7586 69.2078L15.7307 56.2061C18.7755 50.5051 24.4889 47.2626 31.5954 47.2626ZM10.7496 58.2767C11.298 57.7294 12.1401 57.6308 12.8087 58.0433C13.0966 58.2184 12.2701 57.4674 27.2121 72.3595C27.8768 73.023 27.8411 74.08 27.2212 74.6987L20.348 81.4567L4.00826 65.0244L10.7496 58.2767Z" fill="#06338F"/>
<path d="M47.5604 8.7583V10.7031C45.6247 11.388 44.2342 13.2329 44.2342 15.397C44.2342 18.1421 46.472 20.3762 49.2231 20.3762C50.14 20.3762 50.8859 21.1206 50.8859 22.0357C50.8859 22.9507 50.14 23.6952 49.2231 23.6952C48.513 23.6952 47.7456 23.2497 47.064 22.4397C46.4727 21.738 45.424 21.6479 44.7209 22.2373C44.0179 22.8275 43.9269 23.8742 44.5182 24.5758C45.4071 25.6309 46.4525 26.3663 47.5604 26.7373V28.6743C47.5604 29.5913 48.305 30.3339 49.2231 30.3339C50.1413 30.3339 50.8859 29.5913 50.8859 28.6743V26.7295C52.8216 26.044 54.2121 24.1991 54.2121 22.0357C54.2121 19.2899 51.9743 17.0565 49.2231 17.0565C48.3063 17.0565 47.5604 16.312 47.5604 15.397C47.5604 14.482 48.3063 13.7368 49.2231 13.7368C49.8125 13.7368 50.4343 14.0371 51.0217 14.6045C51.6819 15.242 52.7345 15.2245 53.3732 14.5663C54.0119 13.9074 53.9944 12.8568 53.3349 12.2193C52.4908 11.4042 51.6461 10.9431 50.8859 10.6915V8.7583C50.8859 7.84132 50.1413 7.09814 49.2231 7.09814C48.305 7.09814 47.5604 7.84132 47.5604 8.7583Z" fill="#06338F"/>
</svg>
