<svg width="85" height="86" viewBox="0 0 85 86" fill="none" xmlns="http://www.w3.org/2000/svg">
<path d="M57.5831 59.7021C56.6667 59.7021 55.9229 58.9603 55.9229 58.0426C55.9229 57.1257 56.6667 56.3825 57.5831 56.3825C58.5014 56.3825 59.2433 57.1257 59.2433 58.0426C59.2433 58.9603 58.5014 59.7021 57.5831 59.7021Z" fill="#06338F"/>
<path d="M27.417 29.5386C26.4987 29.5386 25.7568 28.7947 25.7568 27.8784C25.7568 26.9601 26.4987 26.2183 27.417 26.2183C28.3334 26.2183 29.0773 26.9601 29.0773 27.8784C29.0773 28.7947 28.3334 29.5386 27.417 29.5386Z" fill="#06338F"/>
<path d="M82.9371 75.2461C82.3767 75.3764 81.7879 75.2072 81.3832 74.7986L74.5005 67.8616H71.2008L67.5685 71.6249V74.9705L74.3526 81.8556C74.7541 82.2629 74.9175 82.8485 74.7845 83.4055C74.6522 83.9619 74.2424 84.4107 73.7002 84.5936C71.9959 85.1681 70.2125 85.4593 68.3986 85.4593C62.9912 85.4593 58.0787 82.938 54.9204 78.5418C51.9645 74.4264 51.0533 69.383 52.3588 64.5562L40.1297 52.3275L19.7558 72.7474V76.7552C19.7558 77.3382 19.4497 77.879 18.9497 78.1786L7.21088 85.2226C6.55717 85.615 5.72123 85.5118 5.18296 84.9729L0.487686 80.2785C-0.0505845 79.7396 -0.153699 78.9036 0.238006 78.2499L7.28092 66.5115C7.58053 66.0115 8.12075 65.706 8.70376 65.7054L12.7103 65.7041L33.0861 45.2841L20.9037 33.1021C16.0768 34.4069 11.0306 33.4944 6.91321 30.5366C2.51949 27.3804 0 22.4693 0 17.0621C0 15.2489 0.291185 13.4649 0.865772 11.7613C1.0493 11.2159 1.50262 10.8041 2.06294 10.6744C2.62391 10.544 3.21211 10.7133 3.61744 11.1219L10.4995 18.0582H13.8173L17.5975 14.2781V10.9604L10.661 4.07851C10.2524 3.67319 10.0832 3.08501 10.2135 2.52406C10.3432 1.96375 10.755 1.51045 11.3004 1.32693C13.0041 0.75235 14.7882 0.461174 16.6014 0.461174C22.0088 0.461174 26.9193 2.98125 30.0763 7.37482C33.0342 11.4921 33.9467 16.5375 32.6419 21.3643L42.4261 31.1482L44.6673 28.7137L43.6388 27.6858C42.9903 27.0373 42.9903 25.9861 43.6388 25.3376C44.2873 24.6898 45.3379 24.6898 45.9871 25.3376L46.9184 26.2689L67.9472 3.42741C67.9628 3.41055 67.979 3.39434 67.9952 3.37813C71.8863 -0.512871 78.1906 -0.514168 82.0836 3.37878C85.9656 7.26263 85.9656 13.5823 82.0836 17.4661C82.0667 17.483 82.0492 17.4992 82.0317 17.5154L59.1539 38.5034L60.0748 39.4243C60.7234 40.0722 60.7234 41.1234 60.0748 41.7719C59.4263 42.4204 58.3757 42.4204 57.7266 41.7719L56.7051 40.7498L54.2661 42.9885L64.0976 52.8197C65.4952 52.4462 66.9375 52.2568 68.3986 52.2568C77.5531 52.2568 85 59.7042 85 68.8577C85 70.6716 84.7088 72.455 84.1342 74.1592C83.9507 74.7046 83.4974 75.1164 82.9371 75.2461ZM14.5742 68.5367C14.2629 68.8487 13.8407 69.0075 13.3997 69.0075L9.64476 69.0088L3.75233 78.8466L6.61424 81.7084L16.4354 75.8148V72.06C16.4354 71.6203 16.6099 71.1988 16.9205 70.8875L37.782 49.9793L35.4337 47.6317L14.5742 68.5367ZM56.8037 36.1533L79.7593 15.0946C82.3236 12.5032 82.3158 8.30737 79.7353 5.72569C77.149 3.13948 72.9622 3.1317 70.3655 5.703L49.2679 28.619L56.8037 36.1533ZM54.3549 38.4003L47.0169 31.0639L44.7757 33.4983L51.9158 40.6389L54.3549 38.4003ZM68.3986 55.5771C66.9465 55.5771 65.5185 55.8099 64.1553 56.2691C63.558 56.4695 62.8978 56.3151 62.4517 55.8696C54.1286 47.5468 36.1945 29.6138 29.5906 23.0095C29.1444 22.5633 28.9894 21.9032 29.1911 21.3052C30.5712 17.2074 29.911 12.8365 27.3791 9.3119C24.8545 5.79768 20.9257 3.78149 16.6014 3.78149C16.1157 3.78149 15.6325 3.80808 15.1539 3.85931L20.427 9.09141C20.7409 9.40269 20.918 9.82681 20.918 10.2697V14.9662C20.918 15.4065 20.7429 15.8287 20.4316 16.1399L15.6786 20.8928C15.3673 21.2041 14.9451 21.3792 14.5048 21.3792H9.80819C9.36525 21.3792 8.94112 21.2021 8.62918 20.8883L3.39759 15.6153C3.34571 16.0939 3.31977 16.577 3.31977 17.0628C3.31977 21.3876 5.33536 25.3156 8.85033 27.8402C12.3744 30.3719 16.746 31.0327 20.8447 29.6521C21.442 29.4504 22.1022 29.6054 22.5483 30.0515C22.6398 30.1423 55.3861 62.8883 55.4094 62.9116C55.8556 63.3578 56.0099 64.0173 55.8089 64.6153C54.4282 68.7131 55.0871 73.0827 57.617 76.6047C60.1436 80.1222 64.073 82.139 68.3979 82.139C68.8986 82.139 69.396 82.1111 69.8889 82.0566L64.7254 76.8161C64.4193 76.5055 64.2481 76.0872 64.2481 75.6514V70.955C64.2481 70.5244 64.4147 70.1113 64.7137 69.802L69.3007 65.0491C69.6133 64.7249 70.0445 64.542 70.4952 64.542H75.1918C75.6341 64.542 76.0582 64.7184 76.3702 65.0329L81.6018 70.3052C81.6536 69.8266 81.6796 69.3435 81.6796 68.8577C81.6796 61.5349 75.7216 55.5771 68.3986 55.5771Z" fill="#06338F"/>
<path d="M51.7133 54.5214L30.9381 33.7468C30.2902 33.0989 30.2902 32.0477 30.9381 31.3992C31.5866 30.7507 32.6378 30.7507 33.2863 31.3992L54.0616 52.1739C54.7101 52.8217 54.7101 53.8729 54.0616 54.5214C53.4131 55.1699 52.3619 55.1699 51.7133 54.5214Z" fill="#06338F"/>
<path d="M72.6928 10.4206C73.3413 9.77403 74.3926 9.77403 75.0411 10.4245C75.6883 11.0736 75.6864 12.1248 75.0372 12.772L60.0726 27.6882C59.4235 28.3354 58.3716 28.3334 57.725 27.6843C57.0771 27.0345 57.0791 25.9839 57.7282 25.3367L72.6928 10.4206Z" fill="#06338F"/>
</svg>
