<svg width="185" height="72" viewBox="0 0 185 72" fill="none" xmlns="http://www.w3.org/2000/svg">
<path fill-rule="evenodd" clip-rule="evenodd" d="M44.2833 61.0326L41.8724 65.7274L39.5885 60.9057H37.3045V69.9146H39.5885V65.2198L41.1111 68.392H42.6337L44.1564 65.2198V69.9146H46.4403V60.9057H44.2833V61.0326ZM23.347 63.0628V70.0415H21.0631V63.0628H18.3985V60.9057C20.9362 60.9057 23.4739 60.9057 26.0117 60.9057V63.0628H23.347ZM75.4973 68.5189L76.893 66.9962C77.5274 67.6307 78.2887 68.0113 79.0501 68.0113C79.6845 68.0113 80.6996 67.8844 80.6996 67.1231C80.6996 66.2349 80.192 66.108 79.4307 66.108C78.9232 66.108 78.4156 66.108 78.035 66.108V64.2047H78.9232C79.5576 64.2047 79.9383 64.0778 80.0652 63.951C80.192 63.8241 80.3189 63.6972 80.3189 63.4434C80.3189 61.7939 77.9081 62.4283 77.0199 63.6972L75.6241 62.1746C76.7661 61.1595 77.6543 60.7788 78.9232 60.7788C79.9383 60.7788 80.8265 61.0326 81.4609 61.4132C82.0953 61.7939 82.476 62.4283 82.476 63.3165C82.476 63.8241 82.3491 64.3316 81.9684 64.8392C81.8416 64.966 81.7147 65.0929 81.5878 65.2198C81.9685 65.3467 82.2222 65.6005 82.476 65.8543C82.8567 66.2349 82.9835 66.7425 82.9835 67.25C82.9835 68.1382 82.6029 68.8995 81.8416 69.4071C81.2071 69.9146 80.3189 70.1684 79.0501 70.1684C77.6543 70.1684 76.2586 69.7877 75.4973 68.5189ZM5.70988 66.8693L4.5679 63.8241L3.42593 66.8693H5.70988ZM0 70.0415L3.29904 61.0326H5.83676L9.1358 70.0415H6.85185L6.34431 68.7726H2.66461L2.15706 70.0415H0ZM12.6886 68.1382H14.9726C15.2263 68.1382 15.4801 68.0113 15.607 67.8844C15.7339 67.7575 15.8608 67.5038 15.8608 67.25C15.8608 66.9962 15.7339 66.7425 15.607 66.6156C15.4801 66.4887 15.2263 66.3618 14.9726 66.3618H12.6886V68.1382ZM16.8759 65.0929C17.5103 65.7274 17.7641 66.3618 17.7641 67.1231C17.7641 67.8844 17.3834 68.6457 16.8759 69.1533C16.3683 69.6608 15.607 70.0415 14.8457 70.0415C13.323 70.0415 11.8004 70.0415 10.2778 70.0415V61.0326C11.6735 61.0326 13.1962 61.0326 14.5919 61.0326C15.3532 61.0326 15.9877 61.2864 16.4952 61.7939C17.0027 62.3014 17.2565 62.9359 17.2565 63.6972C17.2565 64.2047 17.1296 64.7123 16.8759 65.0929ZM12.6886 62.9359V64.3316H14.7188C14.9726 64.3316 15.0995 64.2047 15.2263 64.0778C15.3532 63.951 15.4801 63.8241 15.4801 63.5703C15.4801 63.3165 15.3532 63.1896 15.2263 63.0628C15.0995 62.9359 14.9726 62.809 14.7188 62.809H12.6886V62.9359ZM31.0871 68.0113C29.5645 68.0113 28.93 66.7425 28.93 65.4736C28.93 64.0778 29.5645 62.9359 31.0871 62.9359C32.6097 62.9359 33.2442 64.2047 33.2442 65.4736C33.2442 66.8693 32.6097 68.0113 31.0871 68.0113ZM35.5281 65.4736C35.5281 62.809 33.8786 60.7788 31.0871 60.7788C28.2956 60.7788 26.6461 62.809 26.6461 65.4736C26.6461 68.1382 28.2956 70.1684 31.0871 70.1684C33.8786 70.1684 35.5281 68.2651 35.5281 65.4736ZM53.4191 66.8693L52.2771 63.8241L51.1351 66.8693H53.4191ZM47.8361 70.0415L51.1351 61.0326H53.6728L56.9719 70.0415H54.561L54.0535 68.7726H50.3738L49.8663 70.0415H47.8361ZM89.201 66.8693L88.059 63.8241L86.917 66.8693H89.201ZM83.4911 70.0415L86.7901 61.0326H89.3278L92.6269 70.0415H90.3429L89.8354 68.7726H86.1557L85.6481 70.0415H83.4911ZM61.7936 63.0628V70.0415H59.5096V63.0628H56.845V60.9057C59.3827 60.9057 61.9204 60.9057 64.4582 60.9057V63.0628H61.7936ZM68.3916 61.0326V66.3618L71.6907 61.0326H73.9746V70.0415H71.6907V64.7123L68.3916 70.0415H66.1077V61.0326H68.3916ZM96.0528 61.0326V68.1382H99.3519V61.0326H101.636V68.1382H102.778V71.9448H100.494V70.0415H93.7689V61.0326H96.0528ZM115.72 66.2349C115.34 66.7425 115.086 67.25 114.832 67.6307C114.705 67.8844 114.578 68.1382 114.451 68.1382H113.436V70.0415H114.451C115.847 70.0415 116.228 69.2802 116.608 68.5189C116.862 68.0113 116.989 66.8693 118.765 66.6156V70.0415H121.049V61.0326C119.781 61.0326 118.385 61.0326 117.116 61.0326C116.355 61.0326 115.593 61.2864 115.086 61.7939C114.578 62.3014 114.324 63.0628 114.324 63.8241C114.324 64.5854 114.578 65.3467 115.213 65.8543C115.213 65.9811 115.466 66.108 115.72 66.2349ZM118.765 62.9359V64.7123H117.116C116.862 64.7123 116.608 64.5854 116.481 64.4585C116.355 64.3316 116.228 64.0778 116.228 63.8241C116.228 63.5703 116.355 63.3165 116.481 63.1896C116.608 63.0628 116.862 62.9359 117.116 62.9359H118.765ZM122.826 67.5038V65.6005H127.013V67.5038H122.826ZM140.209 64.3316C140.59 64.2047 140.971 64.0778 141.097 63.951C141.351 63.5703 141.478 63.1896 141.732 62.6821C142.112 61.7939 142.493 61.2863 143.001 61.0326C143.508 60.7788 144.143 60.7788 144.777 60.9057H145.031V62.9359H144.65C144.27 62.809 144.016 63.0628 143.889 63.1896C143.762 63.3165 143.635 63.5703 143.381 63.951C143.128 64.5854 142.874 64.8392 142.62 65.0929L142.493 65.2198C142.62 65.3467 142.747 65.3467 142.874 65.4736C143.001 65.6005 143.128 65.7274 143.254 65.8543C143.762 66.4887 143.762 66.9962 144.143 67.6307C144.27 68.0113 144.523 68.2651 144.904 68.1382L145.285 68.0113V69.9146L145.158 70.0415C144.904 70.1684 144.27 70.1684 144.27 70.1684C143.635 70.1684 143.254 70.0415 142.874 69.7877C141.605 68.7726 142.112 66.7425 140.336 66.6156V70.1684H138.052V61.1595H140.336V64.3316H140.209ZM150.106 62.9359C150.106 64.2047 150.106 65.6005 149.979 66.7425C149.853 68.2651 149.345 70.0415 147.442 70.0415H146.427V68.1382C147.188 68.1382 147.569 68.392 147.949 67.6307C148.33 66.8693 148.203 62.5552 148.203 61.0326H155.055V70.0415H152.771V62.9359H150.106ZM169.647 62.9359H171.931V68.1382H169.012C169.647 66.6156 169.647 64.7123 169.647 62.9359ZM174.215 68.1382V61.0326H167.743C167.617 63.0628 168.124 67.25 166.221 68.1382H165.713V71.9448H167.997V70.0415H172.946V71.9448H175.23V68.1382H174.215ZM106.457 61.0326V66.3618L109.757 61.0326H112.04V70.0415H109.757V64.7123L106.457 70.0415H104.174V61.0326H106.457ZM161.653 66.8693L160.511 63.8241L159.369 66.8693H161.653ZM156.07 70.0415L159.369 61.0326H161.907L165.206 70.0415H162.922L162.414 68.7726H158.735L158.227 70.0415H156.07ZM181.574 66.8693L180.432 63.8241L179.29 66.8693H181.574ZM175.864 70.0415L179.163 61.0326H181.701L185 70.0415H182.716L182.209 68.7726H178.529L178.021 70.0415H175.864ZM136.529 62.809C135.768 61.5401 134.499 60.7788 132.723 60.7788C129.931 60.7788 128.282 62.809 128.282 65.4736C128.282 68.1382 129.931 70.1684 132.723 70.1684C134.499 70.1684 135.768 69.4071 136.529 68.1382L134.626 66.6156C134.372 67.5038 133.738 68.0113 132.723 68.0113C131.2 68.0113 130.566 66.7425 130.566 65.4736C130.566 64.0778 131.2 62.9359 132.723 62.9359C133.738 62.9359 134.246 63.4434 134.626 64.2047L136.529 62.809Z" fill="#CDD2FF"/>
<path fill-rule="evenodd" clip-rule="evenodd" d="M156.324 22.4588V54.1804H154.293V21.9513L156.324 22.4588ZM145.031 19.5405V54.1804H142.112V18.7792L145.031 19.5405ZM150.233 20.9362V54.3073H148.203V20.3018L150.233 20.9362ZM69.1527 21.4438V54.1804H63.316V22.9664L69.1527 21.4438ZM58.7481 24.2353V54.1804H55.8297V24.9966L58.7481 24.2353ZM50.3736 54.1804V26.3923L53.292 25.631V54.1804H50.3736ZM43.6486 54.1804V28.1687L45.6788 27.6612V54.1804H43.6486ZM32.9902 54.1804V30.9602L40.984 28.8032V54.0535H32.9902V54.1804ZM7.99362 37.5583V54.1804H3.29883V38.8272L7.99362 37.5583ZM14.9724 54.1804V35.7819L17.1294 35.2743V54.3073H14.9724V54.1804ZM28.1685 54.1804V32.2291L30.0718 31.7215V54.1804H28.1685ZM21.6973 54.1804V34.0055L23.9813 33.3711V54.1804H21.6973ZM136.529 17.2565V54.1804H130.693V15.7339L136.529 17.2565ZM118.765 12.5617V54.1804H110.771V10.5316L118.765 12.5617ZM125.11 14.2112V54.1804H122.191V13.4499L125.11 14.2112ZM104.935 12.0542V54.1804H102.016V12.8155L104.935 12.0542ZM93.7687 14.9726V54.1804H86.2824V17.0027L93.7687 14.9726ZM83.2371 17.7641V54.1804H81.2069V18.2716L83.2371 17.7641ZM77.9079 19.1598V54.1804H75.8777V19.6674L77.9079 19.1598ZM9.77002 54.1804V37.1776L11.9271 36.6701V54.3073H9.77002V54.1804ZM3.29883 28.2956L110.771 0C156.577 11.9273 135.895 6.59808 181.574 18.6523V54.1804H177.767V21.6975L110.771 3.93347L3.29883 32.356V28.2956ZM171.423 26.5192V54.1804H163.048V24.2353L171.423 26.5192Z" fill="#CDD2FF"/>
</svg>
