<svg width="85" height="34" viewBox="0 0 85 34" fill="none" xmlns="http://www.w3.org/2000/svg">
<path fill-rule="evenodd" clip-rule="evenodd" d="M20.3464 28.0419L19.2387 30.199L18.1893 27.9836H17.1399V32.1228H18.1893V29.9658L18.8889 31.4232H19.5885L20.2881 29.9658V32.1228H21.3374V27.9836H20.3464V28.0419ZM10.727 28.9747V32.1811H9.67764V28.9747H8.45336V27.9836C9.61934 27.9836 10.7853 27.9836 11.9513 27.9836V28.9747H10.727ZM34.6879 31.4815L35.3292 30.7819C35.6207 31.0734 35.9705 31.2483 36.3203 31.2483C36.6118 31.2483 37.0782 31.19 37.0782 30.8402C37.0782 30.4322 36.845 30.3739 36.4952 30.3739C36.262 30.3739 36.0288 30.3739 35.8539 30.3739V29.4994H36.262C36.5535 29.4994 36.7284 29.4411 36.7867 29.3828C36.845 29.3245 36.9033 29.2662 36.9033 29.1496C36.9033 28.3917 35.7956 28.6832 35.3875 29.2662L34.7462 28.5666C35.2709 28.1002 35.679 27.9253 36.262 27.9253C36.7284 27.9253 37.1365 28.0419 37.428 28.2168C37.7195 28.3917 37.8944 28.6832 37.8944 29.0913C37.8944 29.3245 37.8361 29.5577 37.6612 29.7909C37.6029 29.8492 37.5446 29.9075 37.4863 29.9658C37.6612 30.0241 37.7778 30.1407 37.8944 30.2573C38.0693 30.4322 38.1276 30.6653 38.1276 30.8985C38.1276 31.3066 37.9527 31.6564 37.6029 31.8896C37.3114 32.1228 36.9033 32.2394 36.3203 32.2394C35.679 32.2394 35.0377 32.0645 34.6879 31.4815ZM2.62346 30.7236L2.09877 29.3245L1.57407 30.7236H2.62346ZM0 32.1811L1.51577 28.0419H2.68176L4.19753 32.1811H3.14815L2.91495 31.5981H1.22428L0.991084 32.1811H0ZM5.8299 31.3066H6.87929C6.99588 31.3066 7.11248 31.2483 7.17078 31.19C7.22908 31.1317 7.28738 31.0151 7.28738 30.8985C7.28738 30.7819 7.22908 30.6653 7.17078 30.607C7.11248 30.5487 6.99588 30.4904 6.87929 30.4904H5.8299V31.3066ZM7.75377 29.9075C8.04527 30.199 8.16187 30.4905 8.16187 30.8402C8.16187 31.19 7.98697 31.5398 7.75377 31.773C7.52058 32.0062 7.17078 32.1811 6.82099 32.1811C6.1214 32.1811 5.42181 32.1811 4.72222 32.1811V28.0419C5.36351 28.0419 6.0631 28.0419 6.70439 28.0419C7.05418 28.0419 7.34568 28.1585 7.57888 28.3917C7.81207 28.6249 7.92867 28.9164 7.92867 29.2662C7.92867 29.4994 7.87037 29.7326 7.75377 29.9075ZM5.8299 28.9164V29.5577H6.76269C6.87929 29.5577 6.93759 29.4994 6.99588 29.4411C7.05418 29.3828 7.11248 29.3245 7.11248 29.2079C7.11248 29.0913 7.05418 29.033 6.99588 28.9747C6.93759 28.9164 6.87929 28.8581 6.76269 28.8581H5.8299V28.9164ZM14.2833 31.2483C13.5837 31.2483 13.2922 30.6653 13.2922 30.0824C13.2922 29.4411 13.5837 28.9164 14.2833 28.9164C14.9829 28.9164 15.2743 29.4994 15.2743 30.0824C15.2743 30.7236 14.9829 31.2483 14.2833 31.2483ZM16.3237 30.0824C16.3237 28.8581 15.5658 27.9253 14.2833 27.9253C13.0007 27.9253 12.2428 28.8581 12.2428 30.0824C12.2428 31.3066 13.0007 32.2394 14.2833 32.2394C15.5658 32.2394 16.3237 31.3649 16.3237 30.0824ZM24.5439 30.7236L24.0192 29.3245L23.4945 30.7236H24.5439ZM21.9787 32.1811L23.4945 28.0419H24.6605L26.1763 32.1811H25.0686L24.8354 31.5981H23.1447L22.9115 32.1811H21.9787ZM40.9842 30.7236L40.4595 29.3245L39.9348 30.7236H40.9842ZM38.3608 32.1811L39.8765 28.0419H41.0425L42.5583 32.1811H41.5089L41.2757 31.5981H39.585L39.3519 32.1811H38.3608ZM28.3916 28.9747V32.1811H27.3423V28.9747H26.118V27.9836C27.284 27.9836 28.4499 27.9836 29.6159 27.9836V28.9747H28.3916ZM31.4232 28.0419V30.4904L32.939 28.0419H33.9883V32.1811H32.939V29.7326L31.4232 32.1811H30.3738V28.0419H31.4232ZM44.1324 28.0419V31.3066H45.6482V28.0419H46.6975V31.3066H47.2222V33.0556H46.1728V32.1811H43.083V28.0419H44.1324ZM53.1687 30.4322C52.9938 30.6653 52.8772 30.8985 52.7606 31.0734C52.7023 31.19 52.644 31.3066 52.5857 31.3066H52.1193V32.1811H52.5857C53.227 32.1811 53.4019 31.8313 53.5768 31.4815C53.6934 31.2483 53.7517 30.7236 54.5679 30.607V32.1811H55.6173V28.0419C55.0343 28.0419 54.393 28.0419 53.81 28.0419C53.4602 28.0419 53.1104 28.1585 52.8772 28.3917C52.644 28.6249 52.5274 28.9747 52.5274 29.3245C52.5274 29.6743 52.644 30.0241 52.9355 30.2573C52.9355 30.3156 53.0521 30.3739 53.1687 30.4322ZM54.5679 28.9164V29.7326H53.81C53.6934 29.7326 53.5768 29.6743 53.5185 29.616C53.4602 29.5577 53.4019 29.4411 53.4019 29.3245C53.4019 29.2079 53.4602 29.0913 53.5185 29.033C53.5768 28.9747 53.6934 28.9164 53.81 28.9164H54.5679ZM56.4335 31.0151V30.1407H58.3573V31.0151H56.4335ZM64.4204 29.5577C64.5953 29.4994 64.7702 29.4411 64.8285 29.3828C64.9451 29.2079 65.0034 29.033 65.12 28.7998C65.2949 28.3917 65.4698 28.1585 65.703 28.0419C65.9362 27.9253 66.2277 27.9253 66.5192 27.9836H66.6358V28.9164H66.4609C66.286 28.8581 66.1694 28.9747 66.1111 29.033C66.0528 29.0913 65.9945 29.2079 65.8779 29.3828C65.7613 29.6743 65.6447 29.7909 65.5281 29.9075L65.4698 29.9658C65.5281 30.0241 65.5864 30.0241 65.6447 30.0824C65.703 30.1407 65.7613 30.199 65.8196 30.2573C66.0528 30.5487 66.0528 30.7819 66.2277 31.0734C66.286 31.2483 66.4026 31.3649 66.5775 31.3066L66.7524 31.2483V32.1228L66.6941 32.1811C66.5775 32.2394 66.286 32.2394 66.286 32.2394C65.9945 32.2394 65.8196 32.1811 65.6447 32.0645C65.0617 31.5981 65.2949 30.6653 64.4787 30.607V32.2394H63.4294V28.1002H64.4787V29.5577H64.4204ZM68.9678 28.9164C68.9678 29.4994 68.9678 30.1407 68.9095 30.6653C68.8512 31.3649 68.618 32.1811 67.7435 32.1811H67.2771V31.3066C67.6269 31.3066 67.8018 31.4232 67.9767 31.0734C68.1516 30.7236 68.0933 28.7415 68.0933 28.0419H71.2414V32.1811H70.192V28.9164H68.9678ZM77.9458 28.9164H78.9952V31.3066H77.6543C77.9458 30.607 77.9458 29.7326 77.9458 28.9164ZM80.0446 31.3066V28.0419H77.0713C77.013 28.9747 77.2462 30.8985 76.3717 31.3066H76.1385V33.0556H77.1879V32.1811H79.4616V33.0556H80.511V31.3066H80.0446ZM48.9129 28.0419V30.4904L50.4287 28.0419H51.4781V32.1811H50.4287V29.7326L48.9129 32.1811H47.8635V28.0419H48.9129ZM74.273 30.7236L73.7483 29.3245L73.2236 30.7236H74.273ZM71.7078 32.1811L73.2236 28.0419H74.3896L75.9053 32.1811H74.856L74.6228 31.5981H72.9321L72.6989 32.1811H71.7078ZM83.4259 30.7236L82.9012 29.3245L82.3765 30.7236H83.4259ZM80.8025 32.1811L82.3182 28.0419H83.4842L85 32.1811H83.9506L83.7174 31.5981H82.0267L81.7936 32.1811H80.8025ZM62.7298 28.8581C62.38 28.2751 61.797 27.9253 60.9808 27.9253C59.6982 27.9253 58.9403 28.8581 58.9403 30.0824C58.9403 31.3066 59.6982 32.2394 60.9808 32.2394C61.797 32.2394 62.38 31.8896 62.7298 31.3066L61.8553 30.607C61.7387 31.0151 61.4472 31.2483 60.9808 31.2483C60.2812 31.2483 59.9897 30.6653 59.9897 30.0824C59.9897 29.4411 60.2812 28.9164 60.9808 28.9164C61.4472 28.9164 61.6804 29.1496 61.8553 29.4994L62.7298 28.8581Z" fill="white"/>
<path fill-rule="evenodd" clip-rule="evenodd" d="M71.8243 10.3189V24.8937H70.8915V10.0857L71.8243 10.3189ZM66.6357 8.97805V24.8937H65.2948V8.62826L66.6357 8.97805ZM69.0259 9.61934V24.952H68.0931V9.32785L69.0259 9.61934ZM31.7728 9.85254V24.8937H29.0911V10.5521L31.7728 9.85254ZM26.9923 11.1351V24.8937H25.6514V11.4849L26.9923 11.1351ZM23.1446 24.8937V12.1262L24.4854 11.7764V24.8937H23.1446ZM20.0547 24.8937V12.9424L20.9875 12.7092V24.8937H20.0547ZM15.1576 24.8937V14.225L18.8304 13.2339V24.8354H15.1576V24.8937ZM3.67269 17.2565V24.8937H1.51562V17.8395L3.67269 17.2565ZM6.87914 24.8937V16.4403L7.87022 16.2071V24.952H6.87914V24.8937ZM12.9422 24.8937V14.808L13.8167 14.5748V24.8937H12.9422ZM9.96899 24.8937V15.6241L11.0184 15.3326V24.8937H9.96899ZM62.7296 7.92867V24.8937H60.0479V7.22908L62.7296 7.92867ZM54.5678 5.77161V24.8937H50.8949V4.83882L54.5678 5.77161ZM57.4827 6.52949V24.8937H56.1418V6.1797L57.4827 6.52949ZM48.2132 5.53841V24.8937H46.8723V5.8882L48.2132 5.53841ZM43.0828 6.87929V24.8937H39.6432V7.81207L43.0828 6.87929ZM38.244 8.16187V24.8937H37.3112V8.39506L38.244 8.16187ZM35.7955 8.80315V24.8937H34.8627V9.03635L35.7955 8.80315ZM4.48888 24.8937V17.0816L5.47996 16.8484V24.952H4.48888V24.8937ZM1.51562 13.0007L50.8949 0C71.9409 5.48011 62.4381 3.03155 83.4258 8.56996V24.8937H81.6768V9.96914L50.8949 1.80727L1.51562 14.8663V13.0007ZM78.7619 12.1845V24.8937H74.9141V11.1351L78.7619 12.1845Z" fill="white"/>
</svg>
