<svg width="14" height="40" viewBox="0 0 14 40" fill="none" xmlns="http://www.w3.org/2000/svg">
<path d="M7.025 0L7 2.18552e-09C3.141 3.3955e-07 -3.37452e-07 3.14 0 7L5.24537e-07 13C8.60327e-07 16.841 3.127 19.974 6.981 20H7.041C10.881 19.978 14 16.843 14 13L14 7C14 3.14 10.871 -3.36228e-07 7.025 0ZM12 13C11.9982 14.3229 11.4728 15.5914 10.5388 16.5282C9.60476 17.4651 8.33791 17.9942 7.015 18C4.25 17.994 2 15.751 2 13L2 7C2 4.243 4.243 2 7 2H7.025C9.814 2 12 4.196 12 7L12 13Z" fill="#FFB800"/>
<path d="M8 16L6 16L6 10L8 10V16Z" fill="#FFB800"/>
<path d="M7 40L2.757 35.757L4.172 34.343L7 37.172L9.828 34.343L11.243 35.757L7 40Z" fill="#FFB800"/>
</svg>
